<?xml version="1.0" standalone="no"?>
<!DOCTYPE svg PUBLIC "-//W3C//DTD SVG 20010904//EN"
 "http://www.w3.org/TR/2001/REC-SVG-20010904/DTD/svg10.dtd">
<svg version="1.0" xmlns="http://www.w3.org/2000/svg"
 width="512.000000pt" height="512.000000pt" viewBox="0 0 512.000000 512.000000"
 preserveAspectRatio="xMidYMid meet">

<g transform="translate(0.000000,512.000000) scale(0.100000,-0.100000)"
fill="#000000" stroke="none">
<path d="M1229 4477 c-50 -34 -79 -82 -79 -134 0 -55 20 -94 67 -130 l36 -28
1351 -3 1351 -2 -1662 -1663 c-1485 -1486 -1662 -1666 -1668 -1700 -11 -60 2
-104 45 -147 43 -43 87 -56 147 -45 34 6 214 183 1700 1668 l1663 1662 2
-1352 c3 -1347 3 -1352 24 -1379 35 -47 70 -67 126 -72 61 -4 106 19 145 77
l23 34 0 1520 c0 1168 -3 1529 -12 1561 -16 54 -90 128 -144 144 -32 9 -393
12 -1561 12 l-1520 0 -34 -23z"/>
</g>
</svg>
